HIERARCHY
ROOT Hips
{
 OFFSET 0.000000 0.000000 0.000000
 CHANNELS 6 Xposition Yposition Zposition Yrotation Xrotation Zrotation
 JOINT Chest
 {
  OFFSET 0.000000 10.080317 -0.001081
  CHANNELS 3 Yrotation Xrotation Zrotation
  JOINT Chest2
  {
   OFFSET 0.000000 11.096852 0.001963
   CHANNELS 3 Yrotation Xrotation Zrotation
   JOINT Chest3
   {
    OFFSET 0.000000 10.026525 0.000000
    CHANNELS 3 Yrotation Xrotation Zrotation
    JOINT Chest4
    {
     OFFSET 0.000000 10.026525 0.000000
     CHANNELS 3 Yrotation Xrotation Zrotation
     JOINT Neck
     {
      OFFSET 0.000000 14.108171 0.000000
      CHANNELS 3 Yrotation Xrotation Zrotation
      JOINT Head
      {
       OFFSET 0.000000 9.333493 0.004668
       CHANNELS 3 Yrotation Xrotation Zrotation
       End Site
       {
        OFFSET 0.000000 17.851786 0.002438
       }
      }
     }
     JOINT RightCollar
     {
      OFFSET -3.071622 7.873185 0.000000
      CHANNELS 3 Yrotation Xrotation Zrotation
      JOINT RightShoulder
      {
       OFFSET -14.378659 0.000000 0.000000
       CHANNELS 3 Yrotation Xrotation Zrotation
       JOINT RightElbow
       {
        OFFSET -30.778728 0.000000 0.000000
        CHANNELS 3 Yrotation Xrotation Zrotation
        JOINT RightWrist
        {
         OFFSET -25.164217 0.000000 0.000000
         CHANNELS 3 Yrotation Xrotation Zrotation
         End Site
         {
          OFFSET -18.796788 0.000000 0.000000
         }
        }
       }
      }
     }
     JOINT LeftCollar
     {
      OFFSET 3.071622 7.873185 0.000000
      CHANNELS 3 Yrotation Xrotation Zrotation
      JOINT LeftShoulder
      {
       OFFSET 14.378659 0.000000 0.000000
       CHANNELS 3 Yrotation Xrotation Zrotation
       JOINT LeftElbow
       {
        OFFSET 30.778728 0.000000 0.000000
        CHANNELS 3 Yrotation Xrotation Zrotation
        JOINT LeftWrist
        {
         OFFSET 25.164217 0.000000 0.000000
         CHANNELS 3 Yrotation Xrotation Zrotation
         End Site
         {
          OFFSET 18.796788 0.000000 0.000000
         }
        }
       }
      }
     }
    }
   }
  }
 }
 JOINT RightHip
 {
  OFFSET -8.194923 0.005295 0.000540
  CHANNELS 3 Yrotation Xrotation Zrotation
  JOINT RightKnee
  {
   OFFSET 0.000000 -42.473320 -0.000511
   CHANNELS 3 Yrotation Xrotation Zrotation
   JOINT RightAnkle
   {
    OFFSET 0.000000 -41.474259 -0.000865
    CHANNELS 3 Yrotation Xrotation Zrotation
    JOINT RightToe
    {
     OFFSET 0.000000 -7.354994 16.712725
     CHANNELS 3 Yrotation Xrotation Zrotation
     End Site
     {
      OFFSET 0.000000 -1.553903 6.764158
     }
    }
   }
  }
 }
 JOINT LeftHip
 {
  OFFSET 8.194923 0.005295 0.000540
  CHANNELS 3 Yrotation Xrotation Zrotation
  JOINT LeftKnee
  {
   OFFSET 0.000000 -42.473320 -0.000511
   CHANNELS 3 Yrotation Xrotation Zrotation
   JOINT LeftAnkle
   {
    OFFSET 0.000000 -41.474259 -0.000865
    CHANNELS 3 Yrotation Xrotation Zrotation
    JOINT LeftToe
    {
     OFFSET 0.000000 -7.354994 16.712725
     CHANNELS 3 Yrotation Xrotation Zrotation
     End Site
     {
      OFFSET 0.000000 -1.553903 6.764158
     }
    }
   }
  }
 }
}
MOTION
Frames: 15
Frame Time: 0.016667
0.000000 91.111157 0.000000 0.000000 -5.826342 0.000000 0.000000 11.116423 0.000000 0.000000 -5.290081 0.000000 0.000000 0.000000 0.000000 0.000000 0.000000 0.000000 0.000000 12.665069 0.000000 0.000000 0.575450 0.000000 0.000000 0.000000 0.000000 0.000000 0.000000 0.000000 2.337306 0.000000 0.000000 -2.337306 0.000000 0.000000 0.000000 0.000000 0.000000 0.000000 0.000000 0.000000 -2.337306 0.000000 0.000000 2.337306 0.000000 0.000000 0.000000 8.578828 0.000000 0.000000 1.905768 0.000000 0.000000 -4.658254 0.000000 0.000000 0.000000 0.000000 0.000000 8.578828 0.000000 0.000000 1.905768 0.000000 0.000000 -4.658254 0.000000 0.000000 0.000000 0.000000
-116.546101 92.130949 -72.714381 -18.922744 0.875852 1.192187 2.036601 4.749497 1.209268 0.899895 2.116529 0.559616 0.899895 2.116529 0.559616 0.672906 1.588226 0.416547 -14.109980 16.879964 3.132515 -27.115587 -2.898370 10.456651 -4.215773 -1.505256 9.744881 2.326781 -2.145646 64.727522 17.153525 9.879611 7.918151 -3.237968 2.003856 -9.510430 -7.304068 -0.603776 -7.418400 -3.715326 -7.801154 -66.896200 -15.081769 23.868175 -17.016763 3.927663 5.662087 12.815877 -9.580127 -20.331687 -1.184721 -21.134522 22.951464 -7.821261 -6.646549 -0.438220 4.646915 0.124294 -3.414458 4.535609 -5.756926 0.655040 -3.648651 -9.224546 7.474727 -4.124425 10.237557 -9.663081 5.122295 0.006189 0.771085 0.101768
-116.411678 92.102555 -73.018907 -18.666906 0.989393 1.268048 2.075406 4.713113 1.117595 0.922194 2.107607 0.533548 0.922194 2.107607 0.533548 0.689727 1.581516 0.396936 -14.118418 16.851153 3.182089 -27.152145 -2.936420 10.555837 -4.154906 -1.544042 9.831280 2.349414 -2.299156 64.589221 17.013341 9.752413 7.803855 -3.218204 1.991159 -9.526340 -7.266621 -0.568306 -7.372405 -3.778770 -7.738761 -66.762906 -14.711447 24.061613 -16.741860 3.940054 5.678377 12.784395 -9.225159 -19.934003 -1.689777 -21.897828 24.377352 -8.684362 -6.700350 -1.258850 4.662202 0.105332 -3.440357 4.719236 -5.887152 0.298909 -3.699699 -9.343053 7.466017 -4.103174 10.236987 -9.590805 5.065898 0.022695 0.791437 0.112768
-116.290000 92.076324 -73.316536 -18.439074 1.067690 1.375634 2.089894 4.707905 1.009549 0.947977 2.106027 0.505327 0.947977 2.106027 0.505327 0.709161 1.580310 0.375686 -14.123050 16.830850 3.222020 -27.177118 -2.962208 10.634433 -4.076497 -1.622797 9.907874 2.431367 -2.457942 64.453820 16.881993 9.700261 7.703401 -3.230222 1.991297 -9.530744 -7.216128 -0.559945 -7.355959 -3.760109 -7.774434 -66.674049 -14.224650 24.111385 -16.322939 3.950093 5.667554 12.793368 -9.025566 -19.370945 -2.121400 -22.189494 25.552469 -9.325543 -7.115807 -2.318633 4.412441 0.229888 -3.196612 5.010861 -6.079367 -0.090277 -3.760612 -9.393078 7.586994 -4.150485 10.222440 -9.546758 5.043872 0.044216 0.776320 0.112042
-116.179248 92.056383 -73.627861 -18.293503 1.168213 1.405408 2.183715 4.670339 0.983010 0.981878 2.109268 0.475854 0.981878 2.109268 0.475854 0.734683 1.582721 0.353461 -14.136414 16.816788 3.248400 -27.212648 -2.978190 10.689574 -3.974548 -1.728797 9.942757 2.568900 -2.624032 64.324856 16.784979 9.675789 7.632750 -3.227785 1.996786 -9.513962 -7.168657 -0.562437 -7.359301 -3.629618 -7.869467 -66.635693 -13.706126 24.041720 -15.809647 3.957402 5.622612 12.836209 -9.114551 -18.726674 -2.258730 -22.145714 26.390040 -9.958568 -7.392255 -3.685335 4.324240 0.208925 -2.567315 5.058887 -6.323319 -0.589171 -3.761469 -9.317991 7.867505 -4.195592 10.251491 -9.495494 5.063828 0.022779 0.702758 0.061805
-116.079559 92.047562 -73.916372 -18.208160 1.225764 1.441354 2.304752 4.666842 0.948402 1.024064 2.120336 0.449406 1.024064 2.120336 0.449406 0.766401 1.591011 0.333463 -14.148909 16.812421 3.269837 -27.243235 -2.977948 10.733224 -3.895433 -1.855429 9.981003 2.691853 -2.804367 64.189868 16.765240 9.713690 7.622480 -3.227189 1.997673 -9.491693 -7.165473 -0.552302 -7.358740 -3.433187 -8.040786 -66.608092 -13.205722 23.808546 -15.299139 3.954033 5.569768 12.897209 -9.337274 -17.937448 -2.348314 -21.705035 26.880800 -10.323182 -7.730465 -4.841871 4.412201 0.232601 -2.021188 4.815535 -6.463439 -1.037484 -3.787408 -9.283871 8.190826 -4.234545 10.269482 -9.444364 5.135764 0.002770 0.611128 -0.020692
-115.990486 92.052529 -74.193217 -18.135900 1.250514 1.469157 2.414176 4.683938 0.907947 1.069859 2.130809 0.423507 1.069859 2.130809 0.423507 0.800825 1.598855 0.313863 -14.150086 16.818023 3.291256 -27.251233 -2.961991 10.771159 -3.792585 -1.981948 10.028428 2.845262 -2.994388 64.008134 16.840051 9.737680 7.689738 -3.212639 1.980573 -9.466231 -7.198485 -0.508323 -7.351406 -3.205157 -8.270240 -66.594809 -12.765832 23.487407 -14.804400 3.951950 5.512163 12.938300 -9.818478 -17.038466 -2.432509 -21.126994 27.079004 -10.481987 -7.826094 -5.879049 4.665964 0.216065 -1.521257 4.326349 -6.595255 -1.447474 -3.797305 -9.261280 8.510987 -4.284906 10.300961 -9.357617 5.240286 0.000699 0.508019 -0.114304
-115.910921 92.071150 -74.462146 -18.059588 1.277881 1.500658 2.523963 4.695756 0.876614 1.111684 2.139739 0.402137 1.111684 2.139739 0.402137 0.832258 1.605543 0.297675 -14.144118 16.831898 3.307772 -27.243039 -2.933771 10.796139 -3.716757 -2.083437 10.056192 2.999209 -3.213472 63.808597 17.014922 9.767762 7.817527 -3.193765 1.973734 -9.439304 -7.271843 -0.442214 -7.346802 -3.011283 -8.526608 -66.570887 -12.449108 23.107227 -14.434111 3.942341 5.464139 12.977118 -10.445317 -16.080486 -2.563923 -20.494334 27.014138 -10.417368 -7.841090 -6.771442 4.999372 0.196515 -1.076995 3.715951 -6.727084 -1.886054 -3.794481 -9.285974 8.881192 -4.374374 10.352396 -9.261311 5.392613 0.006260 0.397239 -0.218898
-115.848737 92.103464 -74.732590 -17.939384 1.303033 1.556784 2.585698 4.709457 0.823687 1.142786 2.148951 0.380832 1.142786 2.148951 0.380832 0.855650 1.612433 0.281572 -14.127361 16.844603 3.314547 -27.212153 -2.912520 10.800514 -3.614384 -2.171227 10.088783 3.180707 -3.470325 63.565326 17.265924 9.746972 7.993172 -3.187728 1.960624 -9.412329 -7.351341 -0.395545 -7.336476 -2.884908 -8.771653 -66.537510 -12.285396 22.765605 -14.191336 3.930377 5.413444 13.004864 -11.222875 -15.124361 -2.798724 -19.948663 26.881127 -10.256345 -7.778906 -7.570285 5.361131 0.155277 -0.747944 3.135398 -6.948918 -2.367831 -3.806091 -9.213707 9.308310 -4.464202 10.368299 -9.121708 5.553799 0.020581 0.258313 -0.316847
-115.813735 92.140613 -75.002201 -17.820627 1.325291 1.614666 2.642746 4.730720 0.780894 1.167043 2.157822 0.369522 1.167043 2.157822 0.369522 0.873874 1.619080 0.272987 -14.102949 16.857617 3.313510 -27.164676 -2.894361 10.788370 -3.517508 -2.276220 10.091002 3.249118 -3.736343 63.321495 17.619557 9.775827 8.231513 -3.167839 1.947713 -9.404421 -7.438055 -0.383991 -7.345196 -2.831311 -8.988797 -66.494136 -12.294535 22.497487 -14.122984 3.929055 5.397038 13.025086 -11.851810 -14.222200 -3.162468 -19.627267 26.845717 -10.072141 -7.817711 -8.317933 5.746669 0.117113 -0.538274 2.668745 -7.114150 -2.817440 -3.805867 -9.146990 9.717453 -4.549688 10.353502 -8.962025 5.714169 0.027878 0.122032 -0.402840
-115.802666 92.178664 -75.283990 -17.672019 1.343184 1.648362 2.670354 4.753902 0.762619 1.183836 2.164407 0.362646 1.183836 2.164407 0.362646 0.886487 1.624015 0.267759 -14.073377 16.878731 3.305573 -27.104063 -2.864319 10.760297 -3.409060 -2.363491 10.061338 3.339812 -4.007244 63.093658 18.052647 9.699957 8.482227 -3.149103 1.932531 -9.391888 -7.520312 -0.406017 -7.356589 -2.807183 -9.160060 -66.436518 -12.531804 22.345617 -14.256181 3.932157 5.402334 13.035033 -12.384299 -13.377705 -3.568787 -19.473539 27.001508 -9.982152 -7.987780 -9.047238 6.093596 0.113912 -0.465938 2.424161 -7.209498 -3.217939 -3.760585 -9.194907 10.040996 -4.633540 10.366361 -8.767648 5.851221 0.042628 0.021040 -0.465046
-115.826177 92.222503 -75.563759 -17.515272 1.367748 1.681731 2.698256 4.775111 0.766584 1.191094 2.168961 0.355830 1.191094 2.168961 0.355830 0.891951 1.627422 0.262613 -14.034411 16.915979 3.307197 -27.026376 -2.804441 10.743084 -3.324502 -2.451250 10.037564 3.352355 -4.265655 62.864789 18.570240 9.593116 8.778839 -3.129623 1.919128 -9.394338 -7.594668 -0.456161 -7.367828 -2.835757 -9.312830 -66.360218 -12.913063 22.256686 -14.566791 3.919336 5.414051 13.024439 -12.679903 -12.598125 -4.032336 -19.573197 27.341368 -10.046254 -8.219144 -9.726363 6.425095 0.141240 -0.527487 2.364525 -7.269718 -3.580741 -3.675729 -9.302663 10.297056 -4.743395 10.373154 -8.543720 5.961943 0.063027 -0.065088 -0.495406
-115.882407 92.276616 -75.874967 -17.286593 1.421679 1.723666 2.687691 4.773113 0.762859 1.190136 2.168996 0.345914 1.190136 2.168996 0.345914 0.891268 1.627428 0.255180 -14.004433 16.962282 3.320669 -26.967346 -2.723097 10.747981 -3.225003 -2.531763 10.031347 3.319057 -4.530834 62.644193 19.106222 9.412660 9.068609 -3.091583 1.874002 -9.390839 -7.665904 -0.507162 -7.380368 -2.922943 -9.452212 -66.247896 -13.464233 22.162728 -15.009968 3.909165 5.448736 12.988997 -12.850025 -11.892747 -4.553371 -19.824648 27.866666 -10.251198 -8.455390 -10.316588 6.703656 0.155518 -0.734255 2.490782 -7.315850 -3.999049 -3.552651 -9.465415 10.566818 -4.883463 10.349754 -8.270761 6.031577 0.077786 -0.169772 -0.497313
-115.986155 92.334614 -76.203881 -17.025901 1.489013 1.764413 2.691340 4.795477 0.766839 1.188395 2.161303 0.338403 1.188395 2.161303 0.338403 0.889994 1.621643 0.249569 -13.984103 17.010357 3.342557 -26.928387 -2.634304 10.770628 -3.152019 -2.574436 10.048942 3.269027 -4.815728 62.421118 19.631721 9.176130 9.367680 -3.034662 1.865776 -9.395700 -7.760242 -0.551198 -7.391756 -3.033081 -9.619974 -66.114858 -14.123687 22.084403 -15.559528 3.891110 5.484245 12.984782 -13.058586 -11.203044 -5.091881 -19.992894 28.515269 -10.541387 -8.702122 -10.847655 6.888359 0.141649 -1.017072 2.779871 -7.187279 -4.442088 -3.396333 -9.690209 10.892840 -5.040605 10.259064 -8.011097 6.038972 0.086034 -0.276675 -0.467054
-116.115757 92.394205 -76.559652 -16.730360 1.624213 1.795204 2.693860 4.788590 0.756337 1.184390 2.144128 0.331196 1.184390 2.144128 0.331196 0.887026 1.608746 0.244212 -13.981819 17.048735 3.373417 -26.927102 -2.557022 10.817114 -3.079485 -2.598793 10.080547 3.190849 -5.103952 62.268427 20.172331 8.942984 9.629122 -2.997252 1.816083 -9.408183 -7.856339 -0.594539 -7.408022 -3.163982 -9.821754 -65.969306 -14.859502 21.969498 -16.135448 3.867061 5.523422 12.994691 -13.270164 -10.588825 -5.686500 -20.147036 29.256714 -10.877843 -8.922043 -11.307494 6.952227 0.095310 -1.321359 3.202561 -6.878430 -4.996441 -3.205129 -10.136010 11.289840 -5.241079 10.202089 -7.730623 6.006083 0.060437 -0.412408 -0.423218
